<?xml version="1.0" standalone="no"?>
<!DOCTYPE svg PUBLIC "-//W3C//DTD SVG 20010904//EN"
 "http://www.w3.org/TR/2001/REC-SVG-20010904/DTD/svg10.dtd">
<svg version="1.0" xmlns="http://www.w3.org/2000/svg"
 width="128.000000pt" height="128.000000pt" viewBox="0 0 128.000000 128.000000"
 preserveAspectRatio="xMidYMid meet">

<g transform="translate(0.000000,128.000000) scale(0.100000,-0.100000)"
fill="#000000" stroke="none">
<path d="M314 1265 c-7 -16 26 -113 52 -152 16 -25 44 -21 44 7 0 9 -13 48
-28 86 -28 69 -56 92 -68 59z"/>
<path d="M951 1263 c-5 -10 -21 -47 -35 -83 -23 -57 -25 -66 -11 -79 13 -13
17 -13 29 -1 20 22 68 151 62 166 -8 20 -34 17 -45 -3z"/>
<path d="M542 1055 c-101 -63 -105 -65 -171 -65 -75 0 -91 -9 -91 -54 -1 -29
-11 -38 -135 -118 l-135 -87 0 -354 c0 -261 3 -356 12 -365 9 -9 160 -12 618
-12 458 0 609 3 618 12 9 9 12 103 12 363 0 323 -1 353 -17 367 -10 8 -71 48
-135 89 -108 68 -118 77 -118 105 0 43 -16 54 -77 54 -48 0 -63 6 -157 65 -57
36 -107 65 -112 65 -5 0 -55 -29 -112 -65z m168 -30 l55 -34 -109 -1 c-60 0
-107 3 -104 6 9 8 92 62 98 63 3 1 30 -15 60 -34z m240 -393 l0 -297 -46 -28
-47 -28 -66 36 c-36 20 -89 47 -117 62 l-51 26 -103 -60 -104 -60 -43 26 -43
26 0 297 0 298 310 0 310 0 0 -298z m-672 -141 l-3 -120 -102 60 -103 61 0
108 0 108 103 65 102 66 3 -114 c1 -63 1 -168 0 -234z m850 270 l82 -53 0
-107 0 -108 -101 -61 c-55 -34 -102 -62 -105 -62 -2 0 -4 106 -4 236 l0 236
23 -14 c12 -8 59 -38 105 -67z m-908 -421 c74 -45 136 -84 138 -85 3 -3 -277
-165 -284 -165 -2 0 -4 77 -4 171 0 93 3 168 8 166 4 -3 68 -42 142 -87z m987
-246 c-5 -5 -287 149 -287 156 0 3 64 44 143 91 l142 85 3 -164 c1 -91 1 -166
-1 -168z m-313 104 l261 -143 -258 -3 c-141 -1 -373 -1 -515 0 l-257 3 245
142 c135 77 249 142 254 142 5 1 127 -63 270 -141z"/>
<path d="M422 868 c-13 -13 -17 -153 -6 -182 5 -14 31 -16 184 -16 153 0 179
2 184 16 11 29 7 169 -6 182 -17 17 -339 17 -356 0z m308 -93 l0 -55 -130 0
-130 0 0 55 0 55 130 0 130 0 0 -55z"/>
<path d="M410 585 l0 -25 215 0 215 0 0 25 0 25 -215 0 -215 0 0 -25z"/>
<path d="M414 495 c-4 -8 -4 -22 0 -30 4 -13 38 -15 216 -15 l210 0 0 30 0 30
-210 0 c-178 0 -212 -2 -216 -15z"/>
<path d="M37 1103 c-17 -16 -3 -42 47 -92 36 -36 60 -52 70 -48 29 12 16 44
-38 96 -54 50 -66 57 -79 44z"/>
<path d="M1165 1059 c-55 -52 -69 -84 -39 -96 22 -8 126 95 122 121 -5 35 -27
28 -83 -25z"/>
</g>
</svg>
