<svg id="svg" version="1.1" xmlns="http://www.w3.org/2000/svg" xmlns:xlink="http://www.w3.org/1999/xlink" width="400" height="400" viewBox="0, 0, 400,400"><g id="svgg"><path id="path0" d="M95.050 4.244 C 91.014 14.762,113.110 59.375,122.356 59.375 C 132.461 59.375,132.341 50.965,121.866 24.978 C 111.775 -0.055,100.149 -9.044,95.050 4.244 M290.980 13.281 C 275.666 49.133,274.909 59.375,287.574 59.375 C 295.033 59.375,308.916 31.959,311.707 11.719 C 314.253 -6.747,299.045 -5.601,290.980 13.281 M167.055 69.531 C 137.552 88.049,134.722 89.144,112.500 90.625 L 89.063 92.188 87.500 103.937 C 86.012 115.123,83.989 116.934,45.313 141.680 L 4.688 167.672 4.688 283.055 L 4.688 398.438 200.000 398.438 L 395.313 398.438 395.313 283.119 L 395.313 167.800 354.688 141.561 C 316.305 116.771,313.976 114.684,312.500 103.755 L 310.938 92.188 292.151 90.625 C 275.902 89.274,269.104 86.424,241.825 69.531 C 224.479 58.789,207.561 50.000,204.230 50.000 C 200.899 50.000,184.170 58.789,167.055 69.531 M8.333 55.208 C 0.140 63.401,33.535 101.433,47.216 99.490 C 59.804 97.702,57.681 88.639,40.392 70.358 C 25.272 54.371,14.338 49.204,8.333 55.208 M359.750 70.208 C 342.323 88.634,340.167 97.698,352.784 99.490 C 362.505 100.870,394.425 70.333,393.081 60.938 C 391.185 47.677,377.445 51.498,359.750 70.208 M221.103 81.191 L 235.938 90.506 204.948 90.566 C 187.904 90.598,174.883 89.701,176.013 88.571 C 179.446 85.137,201.402 72.077,203.915 71.973 C 205.210 71.919,212.944 76.067,221.103 81.191 M293.750 202.409 L 293.750 295.443 280.158 302.868 L 266.566 310.293 234.385 292.646 C 195.225 271.174,196.045 271.180,159.638 292.077 L 130.214 308.965 118.256 302.139 L 106.298 295.313 106.274 202.344 L 106.250 109.375 200.000 109.375 L 293.750 109.375 293.750 202.409 M129.492 129.070 C 128.603 131.386,128.284 146.535,128.782 162.734 L 129.688 192.188 187.500 192.188 L 245.313 192.188 245.313 159.375 L 245.313 126.563 188.210 125.710 C 142.608 125.030,130.783 125.707,129.492 129.070 M87.500 210.938 C 87.500 249.609,86.592 281.250,85.482 281.250 C 84.371 281.250,69.606 272.686,52.669 262.218 L 21.875 243.186 21.875 212.272 L 21.875 181.357 52.344 161.243 C 69.102 150.181,83.867 141.016,85.156 140.877 C 86.445 140.739,87.500 172.266,87.500 210.938 M346.732 160.997 L 378.125 181.368 378.125 212.370 L 378.125 243.371 349.670 260.973 C 334.020 270.654,319.255 279.327,316.858 280.246 C 313.210 281.646,312.500 270.410,312.500 211.272 C 312.500 172.416,313.139 140.625,313.920 140.625 C 314.701 140.625,329.467 149.792,346.732 160.997 M228.125 159.375 L 228.125 175.000 187.500 175.000 L 146.875 175.000 146.875 159.375 L 146.875 143.750 187.500 143.750 L 228.125 143.750 228.125 159.375 M128.125 215.625 L 128.125 225.000 195.313 225.000 L 262.500 225.000 262.500 215.625 L 262.500 206.250 195.313 206.250 L 128.125 206.250 128.125 215.625 M128.125 250.000 L 128.125 259.375 195.313 259.375 L 262.500 259.375 262.500 250.000 L 262.500 240.625 195.313 240.625 L 128.125 240.625 128.125 250.000 M80.495 303.324 L 109.427 321.127 67.545 344.938 C 44.510 358.035,24.811 368.750,23.769 368.750 C 22.727 368.750,21.875 346.116,21.875 318.453 L 21.875 268.156 36.719 276.838 C 44.883 281.614,64.582 293.532,80.495 303.324 M376.821 367.970 C 375.180 369.612,290.608 324.330,290.731 321.875 C 290.774 321.016,310.104 308.693,333.686 294.492 L 376.563 268.671 377.425 317.587 C 377.900 344.491,377.628 367.164,376.821 367.970 M273.464 337.514 C 314.429 359.866,348.642 378.850,349.494 379.702 C 350.345 380.553,282.253 381.246,198.177 381.241 L 45.313 381.232 118.750 339.148 C 159.141 316.002,193.716 297.022,195.585 296.970 C 197.453 296.918,232.499 315.163,273.464 337.514 " stroke="none" fill="#000000" fill-rule="evenodd"></path></g></svg>